inDegrees=yes
name=ik_S52_A13_T02
DataType=double
version=3
OpenSimVersion=4.3-2021-08-27-4bc7ad9
endheader
time	pelvis_tilt	pelvis_list	pelvis_rotation	pelvis_tx	pelvis_ty	pelvis_tz	hip_flexion_r	hip_adduction_r	hip_rotation_r	knee_angle_r	knee_angle_r_beta	ankle_angle_r	subtalar_angle_r	mtp_angle_r	hip_flexion_l	hip_adduction_l	hip_rotation_l	knee_angle_l	knee_angle_l_beta	ankle_angle_l	subtalar_angle_l	mtp_angle_l	lumbar_extension	lumbar_bending	lumbar_rotation	arm_flex_r	arm_add_r	arm_rot_r	elbow_flex_r	pro_sup_r	wrist_flex_r	wrist_dev_r	arm_flex_l	arm_add_l	arm_rot_l	elbow_flex_l	pro_sup_l	wrist_flex_l	wrist_dev_l
2.820000000000002	-2.047957800607882	-0.3483007657627213	22.098950267406	0	0.9399999999999999	0	13.56556509923839	-5.633644997651178	-4.410635358115317	17.53783034768673	0.3060928832233152	0	0	0	13.56556509923839	-5.633644997651178	-4.410635358115317	17.53783034768673	0.3060928832233152	0	0	0	-0.5677503461678214	0.2638411324616702	6.77411459902976	71.17033932055925	-18.46910600422928	9.597622201437666	74.04385730270198	129.5030286065343	0	0	82.41677766915663	-26.21991199024847	24.06584449083104	31.4076651385227	130.7424605281728	0	0
2.840000000000002	-2.043280121260215	-0.3269966234487604	22.40086673385202	0	0.9399999999999999	0	13.59810785340924	-5.646851658151714	-4.421483714123176	17.56977210542664	0.3066503720647512	0	0	0	13.59810785340924	-5.646851658151714	-4.421483714123176	17.56977210542664	0.3066503720647512	0	0	0	-0.5554953683449	0.279970780965103	6.514537983260001	71.83086171940337	-16.05806097176066	8.821277549287466	71.11988324218268	132.2296524055798	0	0	82.35345260662147	-26.17941160055771	24.47826320902715	32.24765217440545	129.8111119423645	0	0
2.860000000000002	-2.053326171493736	-0.3531818388421694	22.59397272008904	0	0.9399999999999999	0	13.61786974089159	-5.654848255635491	-4.428063230684859	17.58919193250514	0.3069893119874388	0	0	0	13.61786974089159	-5.654848255635491	-4.428063230684859	17.58919193250514	0.3069893119874388	0	0	0	-0.5759299571076868	0.2602780504164032	6.4390968403922	72.13332868966828	-15.06869752978372	8.428247230728767	69.90130785466897	133.3631730374179	0	0	82.50366628955987	-26.07570744866877	24.98749548027058	32.69078624829419	129.0210527628282	0	0
2.880000000000002	-2.07394618694715	-0.3813164033120834	22.76700262676693	0	0.9399999999999999	0	13.63561219158084	-5.662008951865268	-4.433963450562619	17.60664982756314	0.3072940097366687	0	0	0	13.63561219158084	-5.662008951865268	-4.433963450562619	17.60664982756314	0.3072940097366687	0	0	0	-0.6075617435011689	0.2444447883006207	6.329714189819149	72.53003409584356	-14.14340712278169	8.203326674097847	68.76208766561676	134.2944729114554	0	0	82.54621622814432	-25.99554374292374	25.0596136130501	33.56911171236941	128.5319545408924	0	0
2.900000000000002	-2.073662184268113	-0.3697641214316398	22.97938018844548	0	0.9399999999999999	0	13.68431090554303	-5.681569855417341	-4.450129266824675	17.65460132352602	0.3081309212224776	0	0	0	13.68431090554303	-5.681569855417341	-4.450129266824675	17.65460132352602	0.3081309212224776	0	0	0	-0.6082210825924579	0.2586348058267263	6.165133756433666	72.55592336615993	-14.13110648250709	7.803302877895148	67.14023530035539	129.0943281206578	0	0	82.7224815983504	-26.04796129527298	25.13407530386685	34.21048244134495	128.6105672298713	0	0
2.920000000000002	-2.070417580901355	-0.3595333166292347	23.2373440228107	0	0.9399999999999999	0	13.70791151396682	-5.691064549063085	-4.457970117546621	17.67780571656041	0.3085359142818546	0	0	0	13.70791151396682	-5.691064549063085	-4.457970117546621	17.67780571656041	0.3085359142818546	0	0	0	-0.6036571431568875	0.2695873225634614	5.963537862880231	72.8666748963111	-13.25785822238131	7.703787080592145	65.23679230554033	126.7485288705801	0	0	82.76235923201543	-25.97633980605091	25.38075965650248	35.63982597416356	128.5859216130286	0	0
2.940000000000002	-2.068189780707206	-0.3736221613076944	23.42515700319361	0	0.9399999999999999	0	13.73578599646171	-5.702298705617377	-4.467241818178346	17.70513850741048	0.3090129614759473	0	0	0	13.73578599646171	-5.702298705617377	-4.467241818178346	17.70513850741048	0.3090129614759473	0	0	0	-0.6089427006325383	0.2573224767367768	5.839574592994399	73.18509372473369	-12.28324307533913	7.596912016417085	63.68130079253955	126.4406352690674	0	0	82.77394226122071	-25.90382109659783	25.44771983668499	35.98648172557576	128.329701385865	0	0
2.960000000000002	-2.056873982335107	-0.3782963711936283	23.65388624109679	0	0.9399999999999999	0	13.75879257956808	-5.711450925000793	-4.474844355950244	17.72791669664199	0.3094105158756796	0	0	0	13.75879257956808	-5.711450925000793	-4.474844355950244	17.72791669664199	0.3094105158756796	0	0	0	-0.6029304187413567	0.2529123270169583	5.631054300842242	73.40059531879595	-11.42377466040573	7.590697644573087	62.99964308997938	129.5860280184611	0	0	82.89173661108289	-25.83058101651779	25.90214507316764	36.51689549916653	127.6297719014312	0	0
2.980000000000002	-2.050414895425017	-0.3716549711469336	23.79337388479657	0	0.9399999999999999	0	13.78440438689342	-5.721620935097391	-4.48330164423888	17.75328424453451	0.3098532631095613	0	0	0	13.78440438689342	-5.721620935097391	-4.48330164423888	17.75328424453451	0.3098532631095613	0	0	0	-0.5953758984052938	0.2596982467172408	5.526193944063787	73.63876134745016	-10.72066507366431	7.599383720981456	62.48463216132415	133.0800890789859	0	0	83.03496121357379	-25.73404839350412	26.37870813126932	36.95583947413492	127.1132804057158	0	0
3.000000000000002	-2.06523709699866	-0.3768608721678898	23.94204009126471	0	0.9399999999999999	0	13.80136484554127	-5.728404799592703	-4.488924840942538	17.76996221473745	0.3101443486021521	0	0	0	13.80136484554127	-5.728404799592703	-4.488924840942538	17.76996221473745	0.3101443486021521	0	0	0	-0.6120797755742357	0.2627735047628363	5.401934818006906	73.8567640345405	-9.999143288036983	7.407748245834301	61.02565059429944	131.90446958073	0	0	83.25144880634636	-25.68779193387223	26.7746135473951	37.34226802366886	126.4267624876383	0	0
3.020000000000002	-2.067668279625055	-0.3858224262103427	24.16230929331418	0	0.9399999999999999	0	13.82449858382521	-5.737667970884698	-4.496600611023669	17.79266897773861	0.3105406563789925	0	0	0	13.82449858382521	-5.737667970884698	-4.496600611023669	17.79266897773861	0.3105406563789925	0	0	0	-0.6197960459016701	0.2591607981119729	5.174128952928977	74.41826953704573	-8.646214461028837	6.727944835722309	58.52067539907056	130.7263852037842	0	0	83.44140406804787	-25.72173479856912	26.9798997741683	37.79022172197662	125.4715936598343	0	0
3.040000000000002	-2.061080640811494	-0.3884851191520136	24.20740235448549	0	0.9399999999999999	0	13.84590254769662	-5.746220084913378	-4.50369598258812	17.81369368130861	0.3109076066805447	0	0	0	13.84590254769662	-5.746220084913378	-4.50369598258812	17.81369368130861	0.3109076066805447	0	0	0	-0.6156402143583758	0.2548942856881738	5.121926660543781	74.82506955157407	-7.955430293733628	6.118446931865623	57.65310292823141	132.1083855727692	0	0	83.58579274908247	-25.68712983913573	26.91409732374592	38.11982718547272	124.8893883831008	0	0
3.060000000000002	-2.076459317831381	-0.3730843599220302	24.17185863849941	0	0.9399999999999999	0	13.87260455802519	-5.756850854980758	-4.512533330285749	17.83996819562036	0.3113661834646471	0	0	0	13.87260455802519	-5.756850854980758	-4.512533330285749	17.83996819562036	0.3113661834646471	0	0	0	-0.6241801515969894	0.2754876259921381	5.108272069781422	75.36511267477118	-7.215029017979117	5.844878993422668	57.59716426004168	137.0050830325246	0	0	83.77872031696873	-25.64796306702785	26.76335660763318	38.18143171630282	124.7970696353055	0	0
3.080000000000002	-2.104206328134787	-0.3574423774042484	24.08446442444145	0	0.9399999999999999	0	13.88336011992669	-5.761128144899911	-4.516091610599879	17.8505515630331	0.3115508980719476	0	0	0	13.88336011992669	-5.761128144899911	-4.516091610599879	17.8505515630331	0.3115508980719476	0	0	0	-0.6430079144663066	0.3015138001607942	5.141226070315757	75.42719213620933	-7.265761137384419	5.852311614263882	57.77942059313933	137.9279289613078	0	0	83.93764897896486	-25.67941959974025	26.66826699130608	38.53342513041317	124.5991936469435	0	0
3.100000000000002	-2.106996709230524	-0.3653310942374292	24.14712964570515	0	0.9399999999999999	0	13.90109138202313	-5.768183246442515	-4.52196000597865	17.86798086953254	0.3118550968567023	0	0	0	13.90109138202313	-5.768183246442515	-4.52196000597865	17.86798086953254	0.3118550968567023	0	0	0	-0.6502308008502434	0.2964227568691473	4.99788284111027	75.981839826973	-6.371250681390214	5.84971718296236	56.66035413160385	138.5551309338944	0	0	84.19278122471884	-25.68239663606283	27.13319322953738	38.95411087278334	123.9606587449253	0	0
3.120000000000002	-2.126486581883876	-0.3706069132984088	24.21098240063335	0	0.9399999999999999	0	13.92995229530858	-5.779656117944257	-4.531509414351015	17.89634125538962	0.3123500789670442	0	0	0	13.92995229530858	-5.779656117944257	-4.531509414351015	17.89634125538962	0.3123500789670442	0	0	0	-0.6718446554507191	0.3013165309687413	4.88085935891517	76.61572328591963	-5.581163271056864	5.915155914365597	55.40289618444488	138.3873103321854	0	0	84.3760608421177	-25.55920876729087	27.67342189723269	39.70596813179906	122.7437130436965	0	0
3.140000000000002	-2.137453450972887	-0.3655340976145379	24.29828118288093	0	0.9399999999999999	0	13.95401430967477	-5.789215580879006	-4.539470823273318	17.91996417828956	0.312762376750593	0	0	0	13.95401430967477	-5.789215580879006	-4.539470823273318	17.91996417828956	0.312762376750593	0	0	0	-0.680329364734663	0.3122628350886628	4.765733199894006	77.33571843512973	-4.891643600290968	6.121320802955927	54.92382140387902	141.288238481925	0	0	84.3518844318164	-25.57861256683417	27.64356479089802	40.05220122648791	122.6523873128406	0	0
3.160000000000002	-2.12883349521404	-0.3460035985114668	24.24558267493656	0	0.9399999999999999	0	13.98949929702945	-5.803290678491701	-4.551205207120336	17.95480047554846	0.3133703848369642	0	0	0	13.98949929702945	-5.803290678491701	-4.551205207120336	17.95480047554846	0.3133703848369642	0	0	0	-0.6646397601348478	0.3242257100991399	4.809287830563204	78.08114139142907	-4.154423873218383	6.476093221517031	54.6940703014622	147.1554007602145	0	0	84.49666780091727	-25.38629322494601	28.15775910559097	40.00894274536977	122.3295939217864	0	0
3.180000000000002	-2.130523601414403	-0.3490722111371306	24.35038760154377	0	0.9399999999999999	0	14.01793481963574	-5.814565703038567	-4.560609868750186	17.98267917358113	0.3138569599088035	0	0	0	14.01793481963574	-5.814565703038567	-4.560609868750186	17.98267917358113	0.3138569599088035	0	0	0	-0.6675158679091753	0.3241575827122383	4.721957516615465	78.89847839199611	-3.458822575563012	6.767459079140735	53.98080264072604	150.8692607647792	0	0	84.50199969011449	-25.36891467758667	28.17945232431461	40.29762218419192	122.172342696082	0	0
3.200000000000002	-2.079652551448206	-0.3564497625097146	24.44007099113876	0	0.9399999999999999	0	14.0397927845172	-5.823214518210506	-4.567832823756874	18.00412231186569	0.3142312132738297	0	0	0	14.0397927845172	-5.823214518210506	-4.567832823756874	18.00412231186569	0.3142312132738297	0	0	0	-0.624549866367426	0.2971931606808647	4.714909785884	79.60614645184307	-2.940310585142025	7.01540507545688	52.9249266213525	151.7070151571143	0	0	84.70834433003377	-24.97155234536833	28.63062275697181	40.1897570782628	121.5218473201397	0	0
3.220000000000002	-2.062280649117972	-0.3696142092986277	24.60901979355936	0	0.9399999999999999	0	14.06056168111663	-5.831435715030594	-4.574699002982799	18.02446667712016	0.3145862894317485	0	0	0	14.06056168111663	-5.831435715030594	-4.574699002982799	18.02446667712016	0.3145862894317485	0	0	0	-0.6156514740128196	0.2782483521034631	4.609103442118063	80.98279545042952	-1.964108408790281	7.22332207640549	51.0359076642558	153.0352542841053	0	0	84.81495958501557	-24.7670607618068	28.50214801019836	40.21241998518071	121.216890553243	0	0
3.240000000000002	-2.033977918629017	-0.3620091798177457	24.64977250411944	0	0.9399999999999999	0	14.08143017802086	-5.839683558478277	-4.581594188496387	18.04491102276259	0.3149431105766246	0	0	0	14.08143017802086	-5.839683558478277	-4.581594188496387	18.04491102276259	0.3149431105766246	0	0	0	-0.58696049818977	0.2725194025636204	4.625278812425012	81.52821197221537	-1.664824088838235	7.039732271903002	50.20840056632858	154.3919029726499	0	0	84.88925453687165	-24.58537370197688	28.26830781173959	40.13666798311353	121.0791892091302	0	0
